<svg width="163" height="25" viewBox="0 0 163 25" fill="none" xmlns="http://www.w3.org/2000/svg">
<path d="M160 3H163V22H160V25H3V22H0V3H3V0H160V3Z" fill="#F46A00"/>
<rect width="147.2" height="20" transform="translate(8 3)" fill="#F46A00"/>
<path d="M8 7.75H9.68V11.25L11.9525 11.25V14.75H9.68V18.25H8V7.75ZM9.68 18.25H14.72V20H9.68V18.25ZM9.68 6H14.72V7.75H9.68V6ZM14.72 7.75H16.4V18.25H14.72V11.25V9.5V7.75Z" fill="white"/>
<path d="M17.7998 7.75H19.4798V11.25L21.7523 11.25V14.75H19.4798V18.25H17.7998V7.75ZM19.4798 18.25H24.5198V20H19.4798V18.25ZM19.4798 6H24.5198V7.75H19.4798V6ZM24.5198 7.75H26.1998V18.25H24.5198V11.25V9.5V7.75Z" fill="white"/>
<path d="M35.7456 16.8182H34.5638V14.4545H35.7456V16.8182ZM35.7456 16.8182H36.9275V18H35.7456V16.8182ZM33.382 8.54545H34.5638V14.4545H33.382V8.54545ZM38.1093 8.54545H39.2911V14.4545H38.1093V8.54545ZM36.9275 14.4545H38.1093V16.8182H36.9275V14.4545ZM43.88 16.8182V9.72727H41.5164V8.54545H47.4254V9.72727H45.0618V16.8182H47.4254V18H41.5164V16.8182H43.88ZM49.6507 8.54545H55.5598V9.72727H50.8325V12.0909H54.378V13.2727H50.8325V16.8182H55.5598V18H49.6507V8.54545ZM57.785 8.54545H58.9669V14.4545H57.785V8.54545ZM58.9669 14.4545H60.1487V18H58.9669V14.4545ZM62.5123 8.54545H63.6941V14.4545H62.5123V8.54545ZM61.3305 14.4545H62.5123V18H61.3305V14.4545ZM60.1487 12.0909H61.3305V14.4545H60.1487V12.0909ZM74.0537 9.72727H75.2356V16.8182H74.0537V9.72727ZM75.2356 16.8182H78.781V18H75.2356V16.8182ZM78.781 15.6364H79.9628V16.8182H78.781V15.6364ZM75.2356 8.54545H78.781V9.72727H75.2356V8.54545ZM78.781 9.72727H79.9628V10.9091H78.781V9.72727ZM82.1881 10.9091H83.3699V13.2727H86.9153V10.9091H88.0972V18H86.9153V14.4545H83.3699V18H82.1881V10.9091ZM84.5517 8.54545H85.7335V9.72727H84.5517V8.54545ZM83.3699 9.72727H84.5517V10.9091H83.3699V9.72727ZM85.7335 9.72727H86.9153V10.9091H85.7335V9.72727ZM90.3224 9.72727H91.5042V12.0909H90.3224V9.72727ZM91.5042 12.0909H95.0497V13.2727H91.5042V12.0909ZM95.0497 16.8182V18H91.5042V16.8182H95.0497ZM91.5042 16.8182H90.3224V15.6364H91.5042V16.8182ZM95.0497 13.2727H96.2315V16.8182H95.0497V13.2727ZM91.5042 8.54545H95.0497V9.72727H91.5042V8.54545ZM95.0497 9.72727H96.2315V10.9091H95.0497V9.72727ZM98.4568 8.54545H104.366V9.72727H99.6386V12.0909H103.184V13.2727H99.6386V16.8182H104.366V18H98.4568V8.54545ZM114.725 9.72727H115.907V12.0909H114.725V9.72727ZM115.907 12.0909H119.453V13.2727H115.907V12.0909ZM119.453 16.8182V18H115.907V16.8182H119.453ZM115.907 16.8182H114.725V15.6364H115.907V16.8182ZM119.453 13.2727H120.635V16.8182H119.453V13.2727ZM115.907 8.54545H119.453V9.72727H115.907V8.54545ZM119.453 9.72727H120.635V10.9091H119.453V9.72727ZM122.86 8.54545H128.769V9.72727H126.405V18H125.223V9.72727H122.86V8.54545ZM130.994 8.54545H132.176V16.8182H130.994V8.54545ZM132.176 16.8182H135.721V18H132.176V16.8182ZM135.721 8.54545H136.903V16.8182H135.721V8.54545ZM139.128 8.54545H143.856V9.72727H140.31V16.8182H143.856V18H139.128V8.54545ZM143.856 9.72727H145.038V16.8182H143.856V9.72727ZM147.263 8.54545H148.445V12.0909H147.263V8.54545ZM151.99 8.54545H153.172V12.0909H151.99V8.54545ZM149.626 13.2727H150.808V18H149.626V13.2727ZM148.445 12.0909H149.626V13.2727H148.445V12.0909ZM150.808 12.0909H151.99V13.2727H150.808V12.0909Z" fill="white"/>
</svg>
